HIERARCHY
ROOT Hips
{
    OFFSET 0.0 0.0 0.0
    CHANNELS 6 Xposition Yposition Zposition Zrotation Xrotation Yrotation
    JOINT LeftHipJoint
    {
        OFFSET 0.1 0.0 0.0
        CHANNELS 3 Zrotation Xrotation Yrotation
        JOINT LeftUpLeg
        {
            OFFSET 123.19476169398439 0.0 0.0
            CHANNELS 3 Zrotation Xrotation Yrotation
            JOINT LeftLeg
            {
                OFFSET 0.0 0.0 -401.75727706858083
                CHANNELS 3 Zrotation Xrotation Yrotation
                JOINT LeftFoot
                {
                    OFFSET 0.0 0.0 -382.50204915789067
                    CHANNELS 3 Zrotation Xrotation Yrotation
                    End Site
                    {
                        OFFSET 0.0 -0.1 0.0
                    }
                }
            }
        }
    }
    JOINT LowerBack
    {
        OFFSET 0.0 0.0 0.1
        CHANNELS 3 Zrotation Xrotation Yrotation
        JOINT Spine
        {
            OFFSET 0.0 0.0 216.98498535628556
            CHANNELS 3 Zrotation Xrotation Yrotation
            JOINT Spine1
            {
                OFFSET 0.0 0.0 254.37725161530503
                CHANNELS 3 Zrotation Xrotation Yrotation
                JOINT LeftShoulder
                {
                    OFFSET 0.1 0.0 0.0
                    CHANNELS 3 Zrotation Xrotation Yrotation
                    JOINT LeftArm
                    {
                        OFFSET 145.88373741191015 0.0 0.0
                        CHANNELS 3 Zrotation Xrotation Yrotation
                        JOINT LeftForeArm
                        {
                            OFFSET 259.3153645490653 0.0 0.0
                            CHANNELS 3 Zrotation Xrotation Yrotation
                            JOINT LeftHand
                            {
                                OFFSET 239.4060554752784 0.0 0.0
                                CHANNELS 3 Zrotation Xrotation Yrotation
                                End Site
                                {
                                    OFFSET 0.1 0.0 0.0
                                }
                            }
                        }
                    }
                }
                JOINT Neck
                {
                    OFFSET 0.0 0.0 0.1
                    CHANNELS 3 Zrotation Xrotation Yrotation
                    JOINT Neck1
                    {
                        OFFSET 0.0 0.0 106.67088194418731
                        CHANNELS 3 Zrotation Xrotation Yrotation
                        End Site
                        {
                            OFFSET 0.0 0.0 114.65839397785216
                        }
                    }
                }
                JOINT RightShoulder
                {
                    OFFSET -0.1 0.0 0.0
                    CHANNELS 3 Zrotation Xrotation Yrotation
                    JOINT RightArm
                    {
                        OFFSET -145.88373741191015 0.0 0.0
                        CHANNELS 3 Zrotation Xrotation Yrotation
                        JOINT RightForeArm
                        {
                            OFFSET -259.3153645490653 0.0 0.0
                            CHANNELS 3 Zrotation Xrotation Yrotation
                            JOINT RightHand
                            {
                                OFFSET -239.4060554752784 0.0 0.0
                                CHANNELS 3 Zrotation Xrotation Yrotation
                                End Site
                                {
                                    OFFSET -0.1 0.0 0.0
                                }
                            }
                        }
                    }
                }
            }
        }
    }
    JOINT RightHipJoint
    {
        OFFSET -0.1 0.0 0.0
        CHANNELS 3 Zrotation Xrotation Yrotation
        JOINT RightUpLeg
        {
            OFFSET -123.19476169398439 0.0 0.0
            CHANNELS 3 Zrotation Xrotation Yrotation
            JOINT RightLeg
            {
                OFFSET 0.0 0.0 -401.75727706858083
                CHANNELS 3 Zrotation Xrotation Yrotation
                JOINT RightFoot
                {
                    OFFSET 0.0 0.0 -382.50204915789067
                    CHANNELS 3 Zrotation Xrotation Yrotation
                    End Site
                    {
                        OFFSET 0.0 -0.1 0.0
                    }
                }
            }
        }
    }
}
MOTION
Frames: 5
Frame Time: 0.03333333333333333
0.0 0.0 794.3802133560218 22.67909108826337 -2.4938849817830673 3.5452290318003725 0.0 0.0 0.0 0.1303901998827833 -13.706431726090214 1.4911597803005798 0.5707616717189129 31.10828214828952 -3.156536392723957 -3.1805546814635168e-15 3.310429723537619e-32 -1.1927080055488188e-15 0.0 0.0 0.0 -0.01678446528634464 1.821396549508655 -1.4224774618588827 1.8572670313126973 -5.3716769279840784e-17 -2.4764277257976755e-16 0.0 0.0 2.4848083448933725e-17 -45.484516931782316 11.339485015922822 82.39129638549359 -15.482555417326958 -8.260474785712238e-16 -5.729455238854798e-15 0.0 0.0 0.0 0.0 0.0 2.4848083448933725e-17 -0.6369388176370474 -5.830617557204592 0.10340370235322098 0.0 0.0 2.4848083448933725e-17 21.02535096644562 6.158729989690678 -75.05910040708943 28.825190329009484 8.613813211599914e-17 1.3113479996265173e-14 0.0 0.0 -7.951386703658792e-16 0.0 0.0 0.0 0.08002421150373536 -8.777650302739957 -2.7858095255210715 -1.6134844409486808 25.906298908618115 -0.3477597255590073 0.0 0.0 3.975693351829396e-16
0.0 0.0 794.3802133560218 22.650804341391737 -2.490151298356912 3.6604721609705035 0.0 0.0 9.93923337957349e-17 0.13007191089571898 -13.725594202647878 1.3449148283627417 0.48640222160268665 31.252969791203217 -3.1246656451263095 0.0 0.0 3.975693351829396e-16 0.0 0.0 9.93923337957349e-17 -0.016728409243328204 1.8219061729929669 -1.4399227132151557 1.7745427864845758 4.199466320239722e-17 -4.976716364239855e-16 0.0 0.0 7.454425034680117e-17 -45.23990382612235 11.437787488231438 82.47610941566387 -15.262857160919637 4.939764984288565e-15 -9.42625113417478e-16 -3.1805546814635164e-15 -1.5902773407317582e-15 1.1927080055488186e-15 0.0 0.0 7.454425034680117e-17 -0.5669973191956371 -5.74669515406037 -0.06009403631385772 0.0 0.0 7.454425034680117e-17 21.11086680680686 6.577004949942435 -74.9364939316197 29.87865267669054 2.04642799159785e-15 -1.700511825442005e-14 0.0 0.0 -7.951386703658792e-16 0.0 0.0 9.93923337957349e-17 0.0797196897883807 -8.772233191742389 -2.912134741384014 -1.6780309392812984 25.95877329461435 -0.3908265999554914 0.0 0.0 3.9756933518293955e-16
0.0 0.0 794.3802133560218 22.63932573671089 -2.5546719428369005 3.78998861917207 0.0 0.0 -1.987846675914698e-16 0.11405615660016183 -13.69055397955046 1.2376390778812127 0.4604351235331251 31.20305506391278 -3.20595135953555 0.0 0.0 0.0 0.0 0.0 -1.987846675914698e-16 -0.015555626383075194 1.928986793382443 -1.623072915223746 1.8572334507848915 -4.9689639935204145e-17 8.054113548124209e-19 2.155227684594804e-35 -4.9696166897867443e-17 4.9696166897867443e-17 -44.78252561026852 11.327354367683201 82.49671388604808 -15.104573769460833 -4.62494084589317e-15 -1.415275895754627e-15 0.0 0.0 2.782985346280577e-15 2.155227684594804e-35 -4.9696166897867443e-17 4.9696166897867443e-17 -0.40262905994775733 -5.557487933348256 0.06524815534923456 2.155227684594804e-35 -4.9696166897867443e-17 4.9696166897867443e-17 20.871387486700357 6.411474629609881 -74.42933098398254 31.41611157101079 4.783952719823352e-15 5.26245539490761e-15 0.0 0.0 2.3854160110976376e-15 0.0 0.0 -1.987846675914698e-16 0.06869376792675315 -8.623836617900237 -3.0100873197611726 -1.671068461316807 25.650771293849342 -0.47853215000482713 0.0 0.0 -3.975693351829396e-16
0.0 0.0 794.3802133560218 22.724983023065256 -2.6781350341263774 3.8178044300020817 0.0 0.0 -1.987846675914698e-16 0.12815374367872912 -13.558128663143169 1.2827719769651755 0.44513743239305087 31.033086181679536 -3.3809888577192586 -3.1805546814635168e-15 0.0 0.0 0.0 0.0 -1.987846675914698e-16 -0.018289389130488467 1.9923604817750606 -1.6228730818537238 1.8910579939456813 -1.1003981991919205e-16 -6.443220435334277e-16 0.0 0.0 0.0 -43.91791013197947 11.657468649963663 82.68812913125029 -15.068999867675611 3.5306385291450195e-15 9.690711935223293e-15 -1.5902773407317584e-15 -3.034560579909484e-32 2.1866313435061676e-15 0.0 0.0 0.0 -0.4964259859170867 -5.3684000667999845 0.021259880346131785 0.0 0.0 0.0 20.61401354908877 6.764705328264861 -74.00008581934821 33.122641377846286 1.8131792427746866e-15 6.09722013385518e-15 0.0 0.0 -2.3854160110976376e-15 0.0 0.0 -1.987846675914698e-16 0.07639255997517679 -8.392437016673743 -2.993929907761962 -1.6694730967467548 25.3226323270224 -0.5407249855100252 0.0 0.0 3.975693351829396e-16
0.0 0.0 794.3802133560218 22.73421159304965 -2.6970301414401945 3.9130453116221044 0.0 0.0 -9.93923337957349e-17 0.13272047547208524 -13.44012449037719 1.2348985427313326 0.3975633939480665 30.79070864852186 -3.3821173728132212 0.0 0.0 3.975693351829396e-16 0.0 0.0 -9.93923337957349e-17 -0.02000690654789523 2.0827286065000314 -1.8103383823643728 1.9538036134814498 -8.793952344804392e-17 6.724953102246777e-16 0.0 0.0 7.454425034680117e-17 -43.3505850444631 11.259414602254811 82.34312648759591 -14.842692978632238 -6.051062723326427e-15 -2.7928277162103012e-15 -1.5902773407317588e-15 -1.5902773407317588e-15 1.987846675914698e-16 0.0 0.0 7.454425034680117e-17 -0.46927911482665047 -5.159086984446622 0.04630162042102864 0.0 0.0 7.454425034680117e-17 20.699640578188664 6.451904742001283 -73.08443650803777 34.79354796341481 4.168244773222945e-15 -7.97202359283611e-15 0.0 0.0 -7.951386703658792e-16 0.0 0.0 -9.93923337957349e-17 0.07991921574165803 -8.373346302004501 -2.969659896006555 -1.6462852380869217 25.01200567815482 -0.7556789046704532 0.0 0.0 -3.975693351829396e-16
